<?xml version="1.0" encoding="UTF-8"?>
<svg version="1.1" viewBox="0 0 2000 2000" width="500" height="500" xmlns="http://www.w3.org/2000/svg">
<path transform="translate(1188,952)" d="m0 0 14 7 14 8 12 6 28 11 30 9 21 5 20 4 36 4-1 15-6 39-6 20-10 28-10 23-13 26-14 23-12 17-10 13-9 9-9 11-33 33-11 9-10 10-16 12-17 11-15 9-24 13-25 11-27 10-22 7-37 6-30 4-5-1-6-12-8-24-7-30-1-6v-8l7-7 8-7 16-16 7-8 26-30 8-9 13-20 12-21 6-16 12-34 6-24 3-17 1-12v-28l-2-21-5-25-2-12 5 5 9 10 7 9 13 15 5 7 2 1-1-19-2-11 1-4 3 4 7 19 6 21 5 23 4 26 1 12v59l8-13 13-21 8-14 10-25 6-21 2-11 1-12v-30l-2-16-5-24-3-11z" fill="#C48A0B"/>
<path transform="translate(300,854)" d="m0 0 36 4 54 5 41 3 36 2 68 2h72l67-2 40-2 71-6h14l8 14 16 24 8 11 1 7-6-1-14-8-23-12-15-7-19-6-28-6-8-1-30-1 3 23 5 23 9 24 10 21 14 22 3 5v2l-16 9-17 10-32 16-27 12-25 9-30 9-8 1 3-3 17-10 20-14 21-16 5-7-14 8-15 7-21 7-24 5-18 2h-28l-22-3-26-7-24-9-16-8-19-10-7-5v-1l24 1 22 2v-2l-9-3-22-12-21-14-12-9-16-13-12-11-21-21-9-11-10-12-13-18-8-12-3-5z" fill="#CCCDCD"/>
<path transform="translate(944,543)" d="m0 0h22l30 2 24 3 31 6 22 6 31 11 26 11 22 11 27 16 16 11 13 10 10 9 12 9 12 11 8 7 16 17 9 11 10 12 13 19 11 17 13 24-1 2-8 1-9-22-10-19-9-13-11-13-7-7-13-10-16-9-17-7-14-4-8-1h-25l-17 3-13 4-6-1-7-7-14-11-13-8-26-11-14-5-17-3h-28l-16 3-16 6-21 10-12 9-12 11-5 5-7 8-6 9-12 16-10 14-7 10-19-9-25-11-28-10-18-5-11-1-7 10-11 21-6 13-5-1-22-13-19-12-22-14-40-27 2-4 8-8 8-7 22-16 19-14 15-10 24-14 25-13 14-7 27-10 28-8 27-6 26-4 20-2z" fill="#F8BA0E"/>
<path transform="translate(730,1018)" d="m0 0h2v23l1 25 2 18 5 30 7 29 8 26 9 24 9 21 6 10 6 15 8 17 16 26 15 22 10 16 11 17 10 14 2 5-9-1-40-13-21-9-22-12-20-11-20-13-14-10-13-10-13-11-10-9-25-25-9-12-7-8-9-11-13-19-13-21-14-27-11-25-7-18-2-6v-4l13-3 43-9 15-5 37-16 25-12 19-10 10-6z" fill="#F7B90D"/>
<path transform="translate(1188,952)" d="m0 0 14 7 14 8 12 6 28 11 30 9 7 2-3 2-8 26-8 22-10 22-14 24-8 14-30 45-13 16-8 8-4 5-8 7-8 8-11 9-12 10-27 18-21 13-17 10-23 12-15 7-21 8-23 7-28 6h-2l-1 4-1-6v-8l7-7 8-7 16-16 7-8 26-30 8-9 13-20 12-21 6-16 12-34 6-24 3-17 1-12v-28l-2-21-5-25-2-12 5 5 9 10 7 9 13 15 5 7 2 1-1-19-2-11 1-4 3 4 7 19 6 21 5 23 4 26 1 12v59l8-13 13-21 8-14 10-25 6-21 2-11 1-12v-30l-2-16-5-24-3-11z" fill="#F7B90D"/>
<path transform="translate(800,706)" d="m0 0 7 1 36 12 30 13 21 11 21 13 12 9 13 11 12 9 9 7 12 12 8 11 12 26 4 9v4l-12-1-17-5-19-8-17-9-8-6-19-11-16-8-16-6-21-5-25-2v2l16 4 16 6 17 9 12 9 10 9 9 9 10 14 9 17 4 15-1 4-12-10-4-2 11 18 4 8 5 12 6 10 8 13 13 28 10 26 6 18 7 27 3 15 1 13v23l-1 14-2 8h-2l-5-15-7-16-5-9-11-17-10-15-12-17-10-16-11-14-13-16-11-14-20-25-11-12-10-12-12-17-10-14-11-17-15-26-8-18-5-18-4-22-1-17 3-22 4-15 7-13z" fill="#F7B90D"/>
<path transform="translate(533,593)" d="m0 0 4 2 28 22 15 12 14 10 15 9 13 10 14 10 13 11 16 11 24 16 20 13 24 15 32 19 6 5v16l2 15 6 23 9 28 1 5-13 2-65 5-16 1h-26l-26-7-12-6 3-1h47l13-1-32-6-17-5-19-9-18-11-11-9-14-12-10-10-12-17-10-18-5-10 5 2 12 9 10 8 2 1-6-11-10-19-9-23-6-19-6-26-3-18-1-10z" fill="#CCCDCD"/>
<path transform="translate(1181,690)" d="m0 0h13l14 2 13 5 15 8 13 10 11 11 11 15 10 18 4 10v3l-23 1-9 4-8 7-3 5-1 6-6-3h-14l-25 5-14 4v1l48 1v3l-8 7-6 7-7 11-8 14-3 10 2 11 9 14 7 7v2l4 2 18 10 15 6 13 4 7 2 12 13 14 9 5 4 8 18 8 14 1 3-17-4-29-8-31-11-20-9-10-6-8-5-12-5-16-11-14-11-13-12-11-11-11-14-10-14-9-16-6-14-5-16-2-12v-21l4-19 6-16 8-14 9-11 10-9 16-8 15-5z" fill="#F7BA0E"/>
<path transform="translate(1025,641)" d="m0 0h13l21 2 13 4 23 12 17 12 14 12-2 4-11 8-9 10-9 13-9 17-7 21-3 18v20l4 22 6 18 3 7-1 5-21 8-12 2h-36l-5-4-13-23-12-20-8-10-13-13-6-4-10-9-13-10-15-12-13-9-2-4 18-27 4-7 10-13 7-8 14-14 16-12 14-8 9-4 13-3z" fill="#F8BA0E"/>
<path transform="translate(300,854)" d="m0 0 20 3-4 4-4 2 4 6 11 9 15 12 11 8 13 9 19 11 18 8 38 14 28 9 27 7 21 4 22 3 25 2 6 2-1 3-25 7-14 5 1 1 14-1 40-4 44-8 66-15 9-3 6 1 9 17 13 20 1 4-16 9-17 10-32 16-27 12-25 9-30 9-8 1 3-3 17-10 20-14 21-16 5-7-14 8-15 7-21 7-24 5-18 2h-28l-22-3-26-7-24-9-16-8-19-10-7-5v-1l24 1 22 2v-2l-9-3-22-12-21-14-12-9-16-13-12-11-21-21-9-11-10-12-13-18-8-12-3-5z" fill="#FDFDFD"/>
<path transform="translate(754,1032)" d="m0 0 7 6 3 2v2l4 2 10 10 8 7 9 7 14 8 14 10 17 14 17 13 14 10 17 11 4 2-5-13-5-10v-2l17 4 33 7 16 2 30 2 6 19v3l3-1 4-20 5-2 17-1 35-5 16-3-1 5-9 22-8 16-9 16-10 15-5 7-10 2-36 3h-29l-32-3-28-5-23-6-26-10-21-11-12-8-16-12-16-16-6-5-3-5-5-25-1-2-2-16-2-23z" fill="#F8BA0E"/>
<path transform="translate(700,884)" d="m0 0h15l21 3 28 7 15 6 16 8 22 12 12 8v2l-33-5-19-2 3 3 16 10 24 16 3 4 7 29 10 38 15 47 10 25 1 5-6-2-24-16-13-9-10-7-12-11-7-6-7-8-7-9-10-11-22-28-14-21-12-21-13-27-6-19-3-15z" fill="#F7B90D"/>
<path transform="translate(533,593)" d="m0 0 4 2 3 3v13l1 7 8 20 8 16 13 23 10 15 10 14 14 17 12 13 15 15 8 7 5 5 11 10 6 4 2 5-8-2-20-7 3 3 7 4 15 6 15 7 34 14 24 9 18 6 9 4 2 3-5 3-6 2 4 2h7l5-4 9-1v-26l2 3 9 30 2 4v3l-13 2-65 5-16 1h-26l-26-7-12-6 3-1h47l13-1-32-6-17-5-19-9-18-11-11-9-14-12-10-10-12-17-10-18-5-10 5 2 12 9 10 8 2 1-6-11-10-19-9-23-6-19-6-26-3-18-1-10z" fill="#FDFDFD"/>
<path transform="translate(1093,856)" d="m0 0 4 1 6 10 8 11 8 10 9 10 2 4 4 2 3 3v2l4 2 8 8 10 8 4 5 7 15 9 27 4 20 2 21v17l-2 20-3 14-7 20-7 16-2 2-1-3-2-37-2-9-2-13-6-25-7-20-12-25-10-16-9-11-9-10-10-8-13-9h-2l14 20 7 15 5 13 4 13v2l-4-2-9-9-6-7-8-7-12-12-8-11-11-18-14-21-9-12-9-11-1-3 25 1 21-2 17-5z" fill="#F7BA0E"/>
<path transform="translate(942,1273)" d="m0 0h4l4 27 5 24 7 24 8 20 13 28 13 23 8 12 9 12 7 9-2 1-30-15-27-16-17-12-11-9-12-12-8-7-21-21-8-7-8-9-11-15-10-15-6-10v-3l12-3 25-8 12-3 8 16 12 22 9 14 4 10 5 6v2l4 1-6-21-5-18-5-26-3-10 1-4z" fill="#FDFDFD"/>
<path transform="translate(1389,744)" d="m0 0 3 1 4 13 5 18 12 25 9 16 8 11 7 9 11 12 12 10 16 10 15 7 15 5 19 4 6 4 4 8-1 9-5 7-6 3h-9l-12-3-19-8-16-8-14-10-13-11-9-9-11-14-10-15-10-19-8-20-8-25v-6l-5 3-13 10-16 9-21 10-25 8-21 4-9 1h-10l-8-5-4-8 1-9 4-5 7-2 29-1 22-3 20-5 17-7 18-11 15-11z" fill="#FDFDFD"/>
<path transform="translate(833,956)" d="m0 0 5 2 23 13 23 11 10 5 9 11 16 21 8 12 6 12 14 22 9 13 1 4-26-3-29-6-20-4-15-6-6-4-3-8-10-33-7-25-7-31z" fill="#F7B90D"/>
<path transform="translate(1063,992)" d="m0 0h6l1 2 3 37v40l-4 3-27 5-40 4h-4l-1-7-3-44-3-25v-4l36-4z" fill="#F8BA0E"/>
<path transform="translate(938,860)" d="m0 0 43 3 12 2 13 15 9 11 7 11 7 8 11 16 7 11 7 13-1 3-23 5-24 3-23 1-4-10-7-22-15-35-10-19-9-14z" fill="#F8BA0E"/>
<path transform="translate(648,1223)" d="m0 0 8 6 13 8 8 5 3 1v2l6 2 15 8 16 8 14 6 16 6 10 4 28 9 17 4 9 2 8 3 9 13 14 23 13 18 2 5-9-1-40-13-21-9-22-12-20-11-20-13-14-10-13-10-13-11-10-9-25-25-4-7z" fill="#C58B0B"/>
<path transform="translate(788,1199)" d="m0 0 26 13 27 9 22 8 28 7 24 4 19 2h46l-2 4-11 11h-2v2l-10 8-91 6-34 1-12-19-12-21-13-24-5-9z" fill="#F7B90D"/>
<path transform="translate(932,501)" d="m0 0h46l38 4 32 6 25 7 33 12 27 12 25 13 24 15 17 12 11 9 11 11 8 7 10 9v2l4 2v2l4 2 11 11 4 6-4-2-8-8-11-9-10-9-25-20-18-12-15-9-18-10-27-13-29-11-34-11-26-6-33-5-20-2-23-1h-22l-32 2-30 4-37 8-30 9-19 7-24 11-36 19-19 12-19 13-10 8-2-1 9-8 14-11 15-11 24-16 21-12 29-15 19-8 31-10 34-8 33-5z" fill="#F7B90D"/>
<path transform="translate(754,1032)" d="m0 0 7 6 3 2v2l4 2 10 10 8 7 9 7 14 8 13 9 1 7 2 47 2 20v9l-1 2-5-1-16-10-16-12-16-16-6-5-3-5-5-25-1-2-2-16-2-23z" fill="#C6960B"/>
<path transform="translate(1396,964)" d="m0 0h2v12l-2 32-2 26-4 24-8 32-12 36-17 45-12 22-12 18-13 16-6 8-9 11-12 14-27 27-8 7-11 9-18 14-22 16-21 12-15 8-16 6-20 7-36 12-32 8-28 5-8 1h-10v-1l35-7 19-5 36-12 28-10 15-6 25-13 21-13 14-10 14-12 14-11 13-12 8-7 20-20 7-8 12-14 11-14 8-9 10-15 12-20 14-27 9-25 10-28 10-33 6-28 5-38 3-28z" fill="#F7B90D"/>
<path transform="translate(884,832)" d="m0 0 15 5v2l4 2 14 14 9 17 4 15-1 4-12-10-4-2 11 18 4 8 5 12 6 10 8 13 13 28 5 12v4h-2v4l2-1v11l-3-1-2-5-3-3-4-6-2-8h-2l-4-11-2-5h-2l-1-3-2-1-6-13-3-3v-4l-3-1-2-5-3-1v-2l-3-1-7-10v-2h-2l-7-11-6-9v-3h-2l-9-17v-3h-2l-7-21v-8l4-8z" fill="#C7970B"/>
<path transform="translate(1352,851)" d="m0 0h4l5 36 4 31 1 10v57h-2v-2h-2l-8-11-8-9-9-14-5-11-3-10v-23l1-46 8-3z" fill="#C58B0B"/>
<path transform="translate(1062,1116)" d="m0 0h2l-1 5-9 22-8 16-9 16-10 15-5 7-10 2-20 2h-10l1-7 7-12 8-16 10-23 5-12 2-6-2-1 35-5z" fill="#FDFDFD"/>
<path transform="translate(1428,774)" d="m0 0 4 2 12 24 11 13 14 11 14 8 18 8 17 5 10 3 5 5 2 4v10l-3 6-1 1-12-1-18-4-18-8-10-6-12-9-12-11-11-14-9-14-12-22v-4z" fill="#FDFDFD"/>
<path transform="translate(1063,992)" d="m0 0h6l1 2 3 37v40l-4 3-27 5-12 1v-9l3-14 3-29 2-27 1-4z" fill="#FDFDFD"/>
<path transform="translate(796,975)" d="m0 0 7 3 4 1v2l4 2v2l4 2 8 10v3h2v2l3 1 2 8h2l1 3 3 1 3 9 3 5 11 35v5h-2l1 6 2 1 1 6-3 3-3-2-3-5v-2l-6-2-1-5-2-1-5-5-8-9-8-13-7-10-1-5-3-1-6-12-3-7-3-15-2-3v-8z" fill="#C6960B"/>
<path transform="translate(1253,821)" d="m0 0 12 3h9l20-3h5l1 11 1 3 2 43-1 31h-3l-5-5-11-14-10-18-9-20-11-30z" fill="#F7B90E"/>
<path transform="translate(867,1297)" d="m0 0 4 1 10 19 16 24 7 9 9 11v2l4 2v2l3 1 5 7v2h2l2 6h2l7 8 5 5 4 6 8 7 13 10 8 6v3l7 5-2 1-20-12-17-12-11-9-12-12-8-7-21-21-8-7-8-9-11-15-10-15-6-10v-3l12-3z" fill="#CDCECE"/>
<path transform="translate(800,706)" d="m0 0 7 1 36 12 9 4v3l-9 1-16 2-10 6-2 3h-2l-2 5-7 12-8 23-6 31-2 2-2-2-5-27-1-17 3-22 4-15 7-13z" fill="#C7970B"/>
<path transform="translate(788,1199)" d="m0 0 26 13 21 7 4 6 8 31 3 9v6l-2 1h-16l-6-4-15-25-14-26-9-16z" fill="#C7970B"/>
<path transform="translate(1075,824)" d="m0 0h7l7 17-1 5-21 8-12 2h-36l-5-4-7-12 1-2 39-6 20-5z" fill="#FDFDFD"/>
<path transform="translate(1379,802)" d="m0 0 3 1 6 14-1 4-10 6-24 12-17 6-9 3h-4l-2-20-1-5 1-3 23-5 24-8z" fill="#FDFDFD"/>
<path transform="translate(1222,644)" d="m0 0 7 5 6 3 7 7 8 7 16 17 9 11 10 12 13 19 11 17 13 24-1 2-8 1-9-22-10-19-9-13-11-13-7-7-13-10-14-8v-3h-2l-3-6-3-3-4-9-3-6-3-4z" fill="#CD9C0B"/>
<path transform="translate(700,884)" d="m0 0h15l21 3 5 1-1 3-11 4-6 3h-2l-2 11 2 16 3 7 2 10v6l-3 4-8-15-8-18-6-23z" fill="#C7970B"/>
<path transform="translate(1460,860)" d="m0 0 4 2 18 10 20 8 1 2h-2v3l3-1 1 2 9 3 6 1 8 5v5l-8 3-20-7-13-6-14-7-11-8-2-5-1-6z" fill="#CCCDCD"/>
<path transform="translate(1023,912)" d="m0 0 10 4 13 19 8 15-1 3-19 4-6-21-6-18-1-5z" fill="#FDFDFC"/>
<path transform="translate(977,1242)" d="m0 0h3l-2 4-11 11h-2v2l-10 8-22 1 2-6 8-10 6-8 4-1z" fill="#FDFDFC"/>
<path transform="translate(1396,964)" d="m0 0h2v12l-2 32-2 26-4 24-8 32-3 6-2-2v-3h-3l1-7 8-28 5-24 5-38 3-28z" fill="#D09E0B"/>
<path transform="translate(789,860)" d="m0 0h10l8 14 16 24 8 11 1 7-6-1-14-8-5-4h2l1-5-4-10-5-7-1-5-4-2v-2h-2l-6-8z" fill="#FDFBF6"/>
<path transform="translate(1051,913)" d="m0 0 5 2 10 9 6 7 5 4 7 9 8 9 4 9 1 7 2 1h-3l-6-7-8-7-12-12-8-11-11-18z" fill="#FDFDFD"/>
<path transform="translate(563,831)" d="m0 0 6 1 34 16 1 2h-46l4-16z" fill="#F8BA0E"/>
<path transform="translate(574,801)" d="m0 0 21 18 7 5v2l-36-1 1-5 6-18z" fill="#F8BA0E"/>
<path transform="translate(1222,644)" d="m0 0 7 5 6 3 7 7 7 6 2 5 2 2 3 5-2 1-1 5-6-2-7-4v-3h-2l-3-6-3-3-4-9-3-6-3-4z" fill="#C68D0B"/>
<path transform="translate(899,848)" d="m0 0 6 2 1 3 4 2 1 3 3 2v3h2l1 4 5 5 1 4-6 3-9 1-1-3h-2v-2h-2l1-4 3 1-2-7-2-9-3-3z" fill="#C48A0B"/>
<path transform="translate(1396,964)" d="m0 0h2v12l-2 32-2 26-1 7h-1v-6l-4 1 2-18 6-52z" fill="#EEB310"/>
<path transform="translate(1389,1034)" d="m0 0 3 1v12l-4 20-4-1 1-1-2-1-1 4-1-4 6-26z" fill="#CF9D0B"/>
<path transform="translate(837,961)" d="m0 0h6l10 6-3 1-2 9-3 3-2-1 1-2h-4l-1-4v-2l-2-5z" fill="#C6970B"/>
<path transform="translate(1309,1223)" d="m0 0 2 4-2 2-3 5-5 6h-4v-5l10-10h2z" fill="#C5960B"/>
<path transform="translate(1396,964)" d="m0 0h2v12l-1 18-2 3-1-1v-12z" fill="#DFA611"/>
<path transform="translate(708,960)" d="m0 0 5 1-1 7-7 3-4-1 3-1 1-5h2z" fill="#CCCDCD"/>
<path transform="translate(1383,1064)" d="m0 0 3 1-1 1 2 1-1 8-2 4-1-7-2 2v3h-3l2-10h2z" fill="#F8BA0E"/>
<path transform="translate(922,916)" d="m0 0 3 1 1 4 4 1 3 6-1 3-3-1v-2l-3-1-2-3z" fill="#C48A0B"/>
<path transform="translate(916,902)" d="m0 0 5 1v3h3v8l-4-1-4-6z" fill="#C48A0B"/>
<path transform="translate(1347 1e3)" d="m0 0 16 1v7l-3-1-2-2-11-4z" fill="#D3A00B"/>
<path transform="translate(1038,1387)" d="m0 0 4 1v2l-15 2h-10v-1z" fill="#F7BA11"/>
<path transform="translate(1352,851)" d="m0 0h4l1 8-9-4-5 2-2-2z" fill="#D29F0B"/>
<path transform="translate(1389,1026)" d="m0 0 2 3 3-2-1 14h-1v-6l-4 1z" fill="#F8BA0E"/>
<path transform="translate(1229,656)" d="m0 0h2l6 10 3 6v2h-2l-3-6-3-3z" fill="#C5960B"/>
<path transform="translate(828,1269)" d="m0 0 4 2 16 1v1l-18 1z" fill="#F8BA0E"/>
<path transform="translate(818,1297)" d="m0 0 4 4 3 4-1 2-5-2-3-4 1-3z" fill="#CA9A0B"/>
<path transform="translate(927,880)" d="m0 0 2 4 1 7-6-4-2-3h4z" fill="#F8BA0E"/>
<path transform="translate(1314,757)" d="m0 0 1 2 2 1-1 1 3 3v4l-4-2-2-7z" fill="#C48A0B"/>
<path transform="translate(1141,1321)" d="m0 0 2 3-8 4h-3l1-3z" fill="#CE9C0B"/>
<path transform="translate(1363,928)" d="m0 0h3v18h-1l-1-12-1-3z" fill="#CE9C0B"/>
<path transform="translate(696,594)" d="m0 0m-1 1m-1 1m-1 1m-1 1v3l-9 7-2-1 9-8z" fill="#F8BA0E"/>
<path transform="translate(852,1348)" d="m0 0 4 4 1 4h-6v-3z" fill="#D09E0B"/>
<path transform="translate(1267,691)" d="m0 0 5 2 7 6v2l-4-1-5-5z" fill="#C48A0B"/>
<path transform="translate(678,609)" d="m0 0 2 1h-3z" fill="#F8BA0E"/>
<path transform="translate(1014,1392)" d="m0 0 3 1z" fill="#E9C04D"/>
<path transform="translate(680,608)" d="m0 0" fill="#F8BA0E"/>
</svg>
